{
    "asset" : {
        "generator" : "Khronos glTF Blender I/O v1.6.16",
        "version" : "2.0"
    },
    "scene" : 0,
    "scenes" : [
        {
            "name" : "Scene",
            "nodes" : [
                0,
                1,
                2,
                3,
                4,
                5
            ]
        }
    ],
    "nodes" : [
        {
            "mesh" : 0,
            "name" : "stoneBench",
            "rotation" : [
                0.7071068286895752,
                0,
                0,
                0.7071067094802856
            ],
            "translation" : [
                0,
                6.6635003089904785,
                -0.000661486410535872
            ]
        },
        {
            "mesh" : 1,
            "name" : "benchExtend",
            "rotation" : [
                0.7071068286895752,
                0,
                0,
                0.7071067094802856
            ],
            "translation" : [
                -5.132838249206543,
                6.563501358032227,
                -2.500659704208374
            ]
        },
        {
            "mesh" : 2,
            "name" : "legExtend1",
            "rotation" : [
                0.7071068286895752,
                0,
                0,
                0.7071067094802856
            ],
            "translation" : [
                -4.932838439941406,
                -0.3364994525909424,
                -2.3465800285339355
            ]
        },
        {
            "mesh" : 3,
            "name" : "door",
            "rotation" : [
                0.7071068286895752,
                0,
                0,
                0.7071067094802856
            ],
            "translation" : [
                -4.222048759460449,
                0.3149838447570801,
                2.3925068378448486
            ]
        },
        {
            "mesh" : 4,
            "name" : "workBench",
            "rotation" : [
                0.7071068286895752,
                0,
                0,
                0.7071067094802856
            ],
            "translation" : [
                0,
                -1.3364999294281006,
                -0.000661486410535872
            ]
        },
        {
            "mesh" : 5,
            "name" : "door1",
            "rotation" : [
                0.7071068286895752,
                0,
                0,
                0.7071067094802856
            ],
            "translation" : [
                4.337528228759766,
                0.36498379707336426,
                2.3925068378448486
            ]
        }
    ],
    "materials" : [
        {
            "doubleSided" : true,
            "name" : "stoneBenchM",
            "pbrMetallicRoughness" : {
                "baseColorTexture" : {
                    "index" : 0
                },
                "metallicFactor" : 0,
                "roughnessFactor" : 0.5
            }
        },
        {
            "doubleSided" : true,
            "name" : "WoodM",
            "pbrMetallicRoughness" : {
                "baseColorTexture" : {
                    "index" : 1
                },
                "metallicFactor" : 0,
                "roughnessFactor" : 0.5527864098548889
            }
        }
    ],
    "meshes" : [
        {
            "name" : "Mesh",
            "primitives" : [
                {
                    "attributes" : {
                        "POSITION" : 0,
                        "NORMAL" : 1,
                        "TEXCOORD_0" : 2
                    },
                    "indices" : 3,
                    "material" : 0
                }
            ]
        },
        {
            "name" : "Mesh.001",
            "primitives" : [
                {
                    "attributes" : {
                        "POSITION" : 4,
                        "NORMAL" : 5,
                        "TEXCOORD_0" : 6
                    },
                    "indices" : 7,
                    "material" : 1
                }
            ]
        },
        {
            "name" : "Mesh.002",
            "primitives" : [
                {
                    "attributes" : {
                        "POSITION" : 8,
                        "NORMAL" : 9,
                        "TEXCOORD_0" : 10
                    },
                    "indices" : 11,
                    "material" : 1
                }
            ]
        },
        {
            "name" : "Mesh.003",
            "primitives" : [
                {
                    "attributes" : {
                        "POSITION" : 12,
                        "NORMAL" : 13,
                        "TEXCOORD_0" : 14
                    },
                    "indices" : 15,
                    "material" : 1
                }
            ]
        },
        {
            "name" : "Mesh.004",
            "primitives" : [
                {
                    "attributes" : {
                        "POSITION" : 16,
                        "NORMAL" : 17,
                        "TEXCOORD_0" : 18
                    },
                    "indices" : 19,
                    "material" : 1
                }
            ]
        },
        {
            "name" : "Mesh.005",
            "primitives" : [
                {
                    "attributes" : {
                        "POSITION" : 20,
                        "NORMAL" : 21,
                        "TEXCOORD_0" : 22
                    },
                    "indices" : 15,
                    "material" : 1
                }
            ]
        }
    ],
    "textures" : [
        {
            "sampler" : 0,
            "source" : 0
        },
        {
            "sampler" : 0,
            "source" : 1
        }
    ],
    "images" : [
        {
            "bufferView" : 4,
            "mimeType" : "image/jpeg",
            "name" : "Marble018_1K_Color"
        },
        {
            "bufferView" : 9,
            "mimeType" : "image/png",
            "name" : "Wood051_1K_Color"
        }
    ],
    "accessors" : [
        {
            "bufferView" : 0,
            "componentType" : 5126,
            "count" : 30,
            "max" : [
                5,
                2.5,
                0.09999990463256836
            ],
            "min" : [
                -5,
                -2.5,
                -0.10000038146972656
            ],
            "type" : "VEC3"
        },
        {
            "bufferView" : 1,
            "componentType" : 5126,
            "count" : 30,
            "type" : "VEC3"
        },
        {
            "bufferView" : 2,
            "componentType" : 5126,
            "count" : 30,
            "type" : "VEC2"
        },
        {
            "bufferView" : 3,
            "componentType" : 5123,
            "count" : 48,
            "type" : "SCALAR"
        },
        {
            "bufferView" : 5,
            "componentType" : 5126,
            "count" : 392,
            "max" : [
                0,
                5,
                4.000001430511475
            ],
            "min" : [
                -0.20000028610229492,
                -2.384185791015625e-07,
                9.5367431640625e-07
            ],
            "type" : "VEC3"
        },
        {
            "bufferView" : 6,
            "componentType" : 5126,
            "count" : 392,
            "type" : "VEC3"
        },
        {
            "bufferView" : 7,
            "componentType" : 5126,
            "count" : 392,
            "type" : "VEC2"
        },
        {
            "bufferView" : 8,
            "componentType" : 5123,
            "count" : 840,
            "type" : "SCALAR"
        },
        {
            "bufferView" : 10,
            "componentType" : 5126,
            "count" : 68,
            "max" : [
                0,
                4.747804641723633,
                1.000000238418579
            ],
            "min" : [
                -0.19999980926513672,
                -2.384185791015625e-07,
                -6.899999618530273
            ],
            "type" : "VEC3"
        },
        {
            "bufferView" : 11,
            "componentType" : 5126,
            "count" : 68,
            "type" : "VEC3"
        },
        {
            "bufferView" : 12,
            "componentType" : 5126,
            "count" : 68,
            "type" : "VEC2"
        },
        {
            "bufferView" : 13,
            "componentType" : 5123,
            "count" : 102,
            "type" : "SCALAR"
        },
        {
            "bufferView" : 14,
            "componentType" : 5126,
            "count" : 596,
            "max" : [
                4.15273904800415,
                -2.384185791015625e-07,
                0
            ],
            "min" : [
                0,
                -0.31547999382019043,
                -3.3141565322875977
            ],
            "type" : "VEC3"
        },
        {
            "bufferView" : 15,
            "componentType" : 5126,
            "count" : 596,
            "type" : "VEC3"
        },
        {
            "bufferView" : 16,
            "componentType" : 5126,
            "count" : 596,
            "type" : "VEC2"
        },
        {
            "bufferView" : 17,
            "componentType" : 5123,
            "count" : 1536,
            "type" : "SCALAR"
        },
        {
            "bufferView" : 18,
            "componentType" : 5126,
            "count" : 4273,
            "max" : [
                5.149999618530273,
                2.3981196880340576,
                3.186381246475436e-16
            ],
            "min" : [
                -5.149999618530273,
                -2.5,
                -9.100000381469727
            ],
            "type" : "VEC3"
        },
        {
            "bufferView" : 19,
            "componentType" : 5126,
            "count" : 4273,
            "type" : "VEC3"
        },
        {
            "bufferView" : 20,
            "componentType" : 5126,
            "count" : 4273,
            "type" : "VEC2"
        },
        {
            "bufferView" : 21,
            "componentType" : 5123,
            "count" : 10788,
            "type" : "SCALAR"
        },
        {
            "bufferView" : 22,
            "componentType" : 5126,
            "count" : 596,
            "max" : [
                9.5367431640625e-07,
                -2.384185791015625e-07,
                0
            ],
            "min" : [
                -4.152738094329834,
                -0.31547999382019043,
                -3.3141567707061768
            ],
            "type" : "VEC3"
        },
        {
            "bufferView" : 23,
            "componentType" : 5126,
            "count" : 596,
            "type" : "VEC3"
        },
        {
            "bufferView" : 24,
            "componentType" : 5126,
            "count" : 596,
            "type" : "VEC2"
        }
    ],
    "bufferViews" : [
        {
            "buffer" : 0,
            "byteLength" : 360,
            "byteOffset" : 0
        },
        {
            "buffer" : 0,
            "byteLength" : 360,
            "byteOffset" : 360
        },
        {
            "buffer" : 0,
            "byteLength" : 240,
            "byteOffset" : 720
        },
        {
            "buffer" : 0,
            "byteLength" : 96,
            "byteOffset" : 960
        },
        {
            "buffer" : 0,
            "byteLength" : 1079219,
            "byteOffset" : 1056
        },
        {
            "buffer" : 0,
            "byteLength" : 4704,
            "byteOffset" : 1080276
        },
        {
            "buffer" : 0,
            "byteLength" : 4704,
            "byteOffset" : 1084980
        },
        {
            "buffer" : 0,
            "byteLength" : 3136,
            "byteOffset" : 1089684
        },
        {
            "buffer" : 0,
            "byteLength" : 1680,
            "byteOffset" : 1092820
        },
        {
            "buffer" : 0,
            "byteLength" : 919451,
            "byteOffset" : 1094500
        },
        {
            "buffer" : 0,
            "byteLength" : 816,
            "byteOffset" : 2013952
        },
        {
            "buffer" : 0,
            "byteLength" : 816,
            "byteOffset" : 2014768
        },
        {
            "buffer" : 0,
            "byteLength" : 544,
            "byteOffset" : 2015584
        },
        {
            "buffer" : 0,
            "byteLength" : 204,
            "byteOffset" : 2016128
        },
        {
            "buffer" : 0,
            "byteLength" : 7152,
            "byteOffset" : 2016332
        },
        {
            "buffer" : 0,
            "byteLength" : 7152,
            "byteOffset" : 2023484
        },
        {
            "buffer" : 0,
            "byteLength" : 4768,
            "byteOffset" : 2030636
        },
        {
            "buffer" : 0,
            "byteLength" : 3072,
            "byteOffset" : 2035404
        },
        {
            "buffer" : 0,
            "byteLength" : 51276,
            "byteOffset" : 2038476
        },
        {
            "buffer" : 0,
            "byteLength" : 51276,
            "byteOffset" : 2089752
        },
        {
            "buffer" : 0,
            "byteLength" : 34184,
            "byteOffset" : 2141028
        },
        {
            "buffer" : 0,
            "byteLength" : 21576,
            "byteOffset" : 2175212
        },
        {
            "buffer" : 0,
            "byteLength" : 7152,
            "byteOffset" : 2196788
        },
        {
            "buffer" : 0,
            "byteLength" : 7152,
            "byteOffset" : 2203940
        },
        {
            "buffer" : 0,
            "byteLength" : 4768,
            "byteOffset" : 2211092
        }
    ],
    "samplers" : [
        {
            "magFilter" : 9729,
            "minFilter" : 9987
        }
    ],
    "buffers" : [
        {
            "byteLength" : 2215860,
            "uri" : "data:application/octet-stream;base64,"
        }
    ]
}
